<mxfile host="app.diagrams.net" modified="2021-10-20T09:45:55.342Z" agent="5.0 (Macintosh; Intel Mac OS X 10_15_7) AppleWebKit/537.36 (KHTML, like Gecko) Chrome/86.0.4240.193 Safari/537.36" etag="uQlScmkMRnx3Dgvm037_" version="15.5.6" type="github">
  <diagram id="YzcqPDEj_JoNo5dJxRwZ" name="Page-1">
    <mxGraphModel dx="946" dy="537" grid="1" gridSize="10" guides="1" tooltips="1" connect="1" arrows="1" fold="1" page="1" pageScale="1" pageWidth="827" pageHeight="1169" math="0" shadow="0">
      <root>
        <mxCell id="0" />
        <mxCell id="1" parent="0" />
        <mxCell id="ZGah4J7LePYTJugTNT_P-12" style="edgeStyle=orthogonalEdgeStyle;rounded=0;orthogonalLoop=1;jettySize=auto;html=1;exitX=1;exitY=0.5;exitDx=0;exitDy=0;entryX=0;entryY=0.5;entryDx=0;entryDy=0;" edge="1" parent="1" source="ZGah4J7LePYTJugTNT_P-1" target="ZGah4J7LePYTJugTNT_P-2">
          <mxGeometry relative="1" as="geometry" />
        </mxCell>
        <mxCell id="ZGah4J7LePYTJugTNT_P-13" style="edgeStyle=orthogonalEdgeStyle;rounded=0;orthogonalLoop=1;jettySize=auto;html=1;exitX=1;exitY=0.5;exitDx=0;exitDy=0;entryX=0;entryY=0.5;entryDx=0;entryDy=0;" edge="1" parent="1" source="ZGah4J7LePYTJugTNT_P-1" target="ZGah4J7LePYTJugTNT_P-8">
          <mxGeometry relative="1" as="geometry" />
        </mxCell>
        <mxCell id="ZGah4J7LePYTJugTNT_P-14" style="edgeStyle=orthogonalEdgeStyle;rounded=0;orthogonalLoop=1;jettySize=auto;html=1;exitX=1;exitY=0.5;exitDx=0;exitDy=0;entryX=0;entryY=0.5;entryDx=0;entryDy=0;" edge="1" parent="1" source="ZGah4J7LePYTJugTNT_P-1" target="ZGah4J7LePYTJugTNT_P-10">
          <mxGeometry relative="1" as="geometry" />
        </mxCell>
        <mxCell id="ZGah4J7LePYTJugTNT_P-15" style="edgeStyle=orthogonalEdgeStyle;rounded=0;orthogonalLoop=1;jettySize=auto;html=1;exitX=1;exitY=0.5;exitDx=0;exitDy=0;entryX=0;entryY=0.5;entryDx=0;entryDy=0;" edge="1" parent="1" source="ZGah4J7LePYTJugTNT_P-1" target="ZGah4J7LePYTJugTNT_P-11">
          <mxGeometry relative="1" as="geometry" />
        </mxCell>
        <mxCell id="ZGah4J7LePYTJugTNT_P-1" value="单车解冻" style="rounded=0;whiteSpace=wrap;html=1;" vertex="1" parent="1">
          <mxGeometry x="190" y="240" width="120" height="60" as="geometry" />
        </mxCell>
        <mxCell id="ZGah4J7LePYTJugTNT_P-6" style="edgeStyle=orthogonalEdgeStyle;rounded=0;orthogonalLoop=1;jettySize=auto;html=1;exitX=1;exitY=0.5;exitDx=0;exitDy=0;entryX=0;entryY=0.5;entryDx=0;entryDy=0;" edge="1" parent="1" source="ZGah4J7LePYTJugTNT_P-2" target="ZGah4J7LePYTJugTNT_P-3">
          <mxGeometry relative="1" as="geometry" />
        </mxCell>
        <mxCell id="ZGah4J7LePYTJugTNT_P-2" value="查询是否有冻结记录" style="rounded=0;whiteSpace=wrap;html=1;" vertex="1" parent="1">
          <mxGeometry x="370" y="150" width="190" height="60" as="geometry" />
        </mxCell>
        <mxCell id="ZGah4J7LePYTJugTNT_P-3" value="返回无冻结记录" style="rounded=0;whiteSpace=wrap;html=1;fillColor=#f8cecc;strokeColor=#b85450;" vertex="1" parent="1">
          <mxGeometry x="630" y="150" width="130" height="60" as="geometry" />
        </mxCell>
        <mxCell id="ZGah4J7LePYTJugTNT_P-7" value="否" style="text;html=1;align=center;verticalAlign=middle;resizable=0;points=[];autosize=1;strokeColor=none;fillColor=none;" vertex="1" parent="1">
          <mxGeometry x="580" y="150" width="30" height="20" as="geometry" />
        </mxCell>
        <mxCell id="ZGah4J7LePYTJugTNT_P-8" value="更新账户表&lt;br&gt;（减少冻结金额，增加可用余额）" style="rounded=0;whiteSpace=wrap;html=1;" vertex="1" parent="1">
          <mxGeometry x="370" y="240" width="190" height="60" as="geometry" />
        </mxCell>
        <mxCell id="ZGah4J7LePYTJugTNT_P-10" value="往t_deposit_action_freeze&lt;br&gt;插入一条解冻记录" style="rounded=0;whiteSpace=wrap;html=1;" vertex="1" parent="1">
          <mxGeometry x="370" y="330" width="190" height="60" as="geometry" />
        </mxCell>
        <mxCell id="ZGah4J7LePYTJugTNT_P-11" value="更新冻结记录和解冻记录的关系" style="rounded=0;whiteSpace=wrap;html=1;" vertex="1" parent="1">
          <mxGeometry x="370" y="420" width="190" height="60" as="geometry" />
        </mxCell>
        <mxCell id="ZGah4J7LePYTJugTNT_P-16" value="如何确定车辆已经冻结？&lt;br&gt;&lt;div&gt;c_member_code&lt;/div&gt;&lt;div&gt;c_target_type&lt;/div&gt;&lt;div&gt;c_target_code&lt;/div&gt;&lt;div&gt;c_operation_type&lt;/div&gt;&lt;div&gt;c_relation_id is null&lt;/div&gt;&lt;div&gt;根据这5个条件从t_deposit_action_freeze表中查询记录&lt;/div&gt;" style="shape=note;strokeWidth=2;fontSize=14;size=20;whiteSpace=wrap;html=1;fillColor=#fff2cc;strokeColor=#d6b656;fontColor=#666600;" vertex="1" parent="1">
          <mxGeometry x="140" y="360" width="180" height="150" as="geometry" />
        </mxCell>
      </root>
    </mxGraphModel>
  </diagram>
</mxfile>
